<?xml version="1.0" standalone="no"?>
<!DOCTYPE svg PUBLIC "-//W3C//DTD SVG 20010904//EN"
 "http://www.w3.org/TR/2001/REC-SVG-20010904/DTD/svg10.dtd">
<svg version="1.0" xmlns="http://www.w3.org/2000/svg"
 width="823.000000pt" height="340.000000pt" viewBox="0 0 823.000000 340.000000"
 preserveAspectRatio="xMidYMid meet">

<g transform="translate(0.000000,340.000000) scale(0.100000,-0.100000)"
fill="#000000" stroke="none">
<path d="M5276 3384 c-9 -24 -9 -24 34 -24 33 0 40 3 40 20 0 16 -7 20 -34 20
-22 0 -36 -6 -40 -16z"/>
<path d="M5880 3386 c0 -14 55 -30 71 -20 5 3 9 12 9 20 0 10 -12 14 -40 14
-27 0 -40 -4 -40 -14z"/>
<path d="M6618 3393 c128 -2 335 -2 460 0 125 1 20 2 -233 2 -253 0 -355 -1
-227 -2z"/>
<path d="M5653 3330 c-30 -18 -53 -63 -39 -77 3 -4 6 3 6 14 0 59 100 85 145
37 14 -15 22 -30 20 -35 -3 -4 -1 -10 5 -14 13 -8 13 8 -2 40 -13 28 -55 55
-85 55 -10 0 -33 -9 -50 -20z"/>
<path d="M5417 3320 c-30 -23 -41 -59 -28 -92 8 -20 10 -17 10 19 1 33 7 46
27 62 46 36 113 20 134 -33 7 -17 9 -18 9 -3 1 10 -10 29 -24 42 -31 32 -91
34 -128 5z"/>
<path d="M5840 3240 c0 -16 -4 -30 -10 -30 -5 0 -10 -4 -10 -9 0 -5 7 -8 16
-7 35 3 39 -30 11 -88 -15 -30 -27 -59 -27 -64 0 -20 -44 -63 -83 -84 -29 -15
-68 -22 -130 -26 -90 -5 -113 -16 -83 -38 13 -9 14 -14 5 -20 -7 -4 -15 -2
-17 4 -2 7 -8 10 -13 6 -5 -3 -2 -12 6 -20 8 -9 20 -12 25 -9 6 4 23 4 37 0
l26 -6 -22 -15 c-14 -11 -21 -26 -21 -50 0 -19 -4 -34 -10 -34 -5 0 -10 10
-10 21 0 18 -2 19 -15 9 -8 -7 -15 -21 -15 -31 0 -15 -5 -18 -26 -15 -14 3
-36 12 -49 20 -21 14 -23 13 -34 -8 -7 -12 -11 -29 -9 -37 2 -9 -7 -15 -29
-17 -29 -3 -33 -7 -33 -34 0 -47 34 -93 94 -124 66 -34 80 -65 70 -157 -6 -58
-5 -66 13 -76 11 -5 23 -7 27 -4 3 3 6 -1 6 -10 0 -12 9 -17 30 -17 27 0 30 3
30 32 0 17 5 47 12 65 10 28 10 36 -4 49 -12 13 -14 22 -5 49 5 19 17 37 25
40 21 8 27 -2 12 -20 -11 -13 -8 -26 20 -81 38 -72 73 -103 96 -83 17 14 17
37 0 67 -10 20 -10 32 5 75 14 43 24 55 56 70 61 30 91 65 104 121 6 28 9 67
7 86 -3 35 -3 35 -49 32 l-46 -3 -7 47 c-10 73 -7 117 10 139 21 29 52 140 60
219 6 60 5 71 -11 83 -28 20 -35 16 -35 -17z m-363 -548 c-16 -2 -36 3 -46 12
-30 27 -34 17 -6 -15 14 -17 23 -34 19 -38 -4 -3 -9 0 -11 7 -3 6 -9 12 -14
12 -6 0 -7 -4 -4 -10 3 -5 2 -10 -4 -10 -13 0 -21 29 -16 55 2 11 4 26 4 33 1
8 19 3 54 -15 49 -27 51 -28 24 -31z"/>
<path d="M5330 3225 c0 -19 5 -35 10 -35 6 0 10 16 10 35 0 19 -4 35 -10 35
-5 0 -10 -16 -10 -35z"/>
<path d="M5483 3204 c-3 -8 0 -21 6 -27 14 -14 44 2 49 27 5 22 -46 22 -55 0z"/>
<path d="M5650 3207 c0 -21 25 -38 44 -31 26 10 15 39 -17 42 -18 2 -27 -1
-27 -11z"/>
<path d="M5557 3165 c-36 -32 -97 -33 -147 -5 -35 21 -35 21 -12 0 38 -32 94
-44 154 -34 38 7 68 6 105 -3 57 -14 84 -9 121 26 31 30 28 34 -10 11 -45 -27
-97 -26 -142 5 -20 14 -38 25 -39 25 -1 0 -15 -12 -30 -25z"/>
<path d="M5413 2963 c-18 -7 -16 -52 2 -59 8 -4 12 -10 9 -15 -3 -5 4 -9 15
-9 14 0 19 5 15 15 -5 11 -1 14 12 9 18 -5 18 -5 1 6 -15 10 -16 14 -5 28 7 9
8 13 2 9 -7 -4 -14 0 -18 8 -6 15 -12 17 -33 8z m25 -28 c-3 -3 -9 2 -12 12
-6 14 -5 15 5 6 7 -7 10 -15 7 -18z"/>
<path d="M5480 2930 c0 -5 5 -10 10 -10 6 0 10 5 10 10 0 6 -4 10 -10 10 -5 0
-10 -4 -10 -10z"/>
<path d="M910 2220 l0 -170 25 0 25 0 0 170 0 170 -25 0 -25 0 0 -170z"/>
<path d="M1878 2284 c-12 -11 -9 -102 3 -109 6 -4 11 -5 12 -4 6 11 -9 120
-15 113z"/>
<path d="M1107 2259 c-10 -37 -8 -89 3 -89 6 0 10 17 11 38 l0 37 16 -32 c9
-18 19 -33 23 -33 4 0 14 15 23 33 l16 32 0 -37 c1 -21 6 -38 11 -38 11 0 12
51 1 89 -5 19 -8 21 -17 10 -7 -8 -15 -24 -18 -36 -8 -25 -26 -31 -26 -9 0 8
-8 24 -18 37 l-19 22 -6 -24z"/>
<path d="M1633 2273 c-23 -9 -13 -38 19 -56 33 -19 30 -32 -12 -40 -18 -3 -15
-5 13 -6 33 -1 37 2 37 22 0 16 -9 28 -26 36 -30 13 -27 33 7 42 l24 7 -25 0
c-14 0 -31 -2 -37 -5z"/>
<path d="M1342 2223 c3 -43 6 -48 28 -50 14 -1 18 0 8 3 -12 4 -18 15 -18 34
0 19 6 30 18 33 16 4 16 5 0 6 -10 0 -18 6 -18 11 0 6 -5 10 -11 10 -6 0 -9
-19 -7 -47z"/>
<path d="M1721 2223 c-1 -51 0 -53 27 -52 26 0 26 1 5 9 -27 11 -30 45 -5 59
15 9 15 10 0 11 -9 0 -19 6 -21 13 -3 6 -6 -12 -6 -40z"/>
<path d="M1248 2225 c-14 -31 4 -55 41 -54 l26 1 -24 7 c-38 10 -38 31 -1 31
25 0 31 3 26 16 -3 9 -6 18 -6 20 0 2 -11 4 -25 4 -17 0 -29 -8 -37 -25z m47
5 c3 -5 -3 -10 -15 -10 -12 0 -18 5 -15 10 3 6 10 10 15 10 5 0 12 -4 15 -10z"/>
<path d="M1421 2208 l2 -43 6 35 c4 20 12 34 19 33 7 -2 12 2 12 7 0 6 -9 10
-20 10 -17 0 -20 -6 -19 -42z"/>
<path d="M1492 2241 c-8 -5 -12 -21 -10 -37 2 -24 8 -29 35 -32 24 -2 33 1 38
17 13 42 -27 75 -63 52z m43 -32 c0 -28 -29 -38 -39 -13 -7 19 11 47 28 41 6
-2 11 -14 11 -28z"/>
<path d="M1780 2241 c0 -5 7 -25 15 -44 14 -33 13 -37 -3 -46 -16 -10 -16 -10
1 -11 20 0 62 81 54 103 -3 7 -10 -1 -17 -18 l-12 -30 -14 28 c-15 27 -24 34
-24 18z"/>
<path d="M1932 2241 c-8 -4 -12 -21 -10 -37 3 -26 7 -29 38 -30 26 -1 28 -1 8
3 -36 6 -37 33 -2 33 19 0 25 5 22 18 -4 19 -36 27 -56 13z m33 -11 c3 -5 -1
-10 -10 -10 -9 0 -13 5 -10 10 3 6 8 10 10 10 2 0 7 -4 10 -10z"/>
<path d="M5185 2225 c-22 -8 -41 -15 -42 -15 -6 0 -43 -70 -43 -81 1 -8 7 0
15 18 16 37 47 60 107 78 24 8 34 14 23 14 -11 0 -38 -6 -60 -14z"/>
<path d="M5274 2221 c3 -5 -3 -11 -14 -14 -21 -5 -28 -27 -9 -27 5 0 8 -4 5
-9 -9 -14 31 -43 56 -39 32 4 33 30 3 67 -24 28 -55 45 -41 22z"/>
<path d="M5406 2138 c-3 -12 -7 -43 -10 -67 -3 -27 -13 -52 -26 -65 l-22 -21
12 23 c10 21 5 19 -40 -12 -62 -43 -112 -47 -180 -14 -25 12 -49 22 -55 22 -5
1 -11 11 -13 24 -5 34 -24 27 -54 -21 -18 -29 -25 -50 -21 -70 6 -30 23 -47
23 -22 0 24 46 65 73 65 13 0 32 -9 42 -20 10 -11 23 -20 29 -19 6 1 29 0 51
-1 l40 -3 -40 -6 -40 -7 37 -11 c56 -17 106 -1 151 46 20 23 40 54 43 71 9 44
27 54 84 47 47 -6 49 -5 41 16 -9 24 -50 52 -93 62 -23 6 -28 3 -32 -17z"/>
<path d="M5510 2035 c-9 -11 -11 -38 -6 -98 5 -73 4 -87 -18 -133 -30 -64 -68
-100 -128 -122 -27 -9 -48 -21 -48 -25 0 -5 7 -6 15 -3 14 5 14 3 1 -15 -8
-12 -12 -28 -9 -37 5 -12 1 -14 -15 -10 -12 4 -22 2 -22 -4 0 -19 -29 -38 -59
-38 -20 0 -31 -5 -31 -15 0 -7 -8 -19 -17 -24 -10 -6 -12 -11 -5 -11 21 0 13
-20 -9 -20 -12 0 -18 4 -13 11 4 7 1 10 -7 7 -22 -7 -22 -33 2 -83 27 -58 50
-73 130 -87 72 -13 84 -23 64 -52 -11 -14 -12 -23 -4 -33 11 -13 8 -52 -6 -87
-7 -16 -5 -18 8 -13 9 3 19 2 22 -3 12 -20 35 -10 35 14 0 18 6 26 21 28 28 4
36 19 49 91 14 69 29 70 46 3 11 -43 38 -86 53 -86 28 1 35 23 36 118 l0 100
43 46 c45 49 50 73 32 150 -10 47 -25 58 -67 51 -42 -7 -48 5 -44 90 1 39 -4
100 -13 137 -9 40 -13 86 -10 112 7 47 -5 66 -26 41z m-50 -360 c-7 -9 -15
-13 -17 -11 -7 7 7 26 19 26 6 0 6 -6 -2 -15z m72 -57 c-7 -7 -12 -8 -12 -2 0
14 12 26 19 19 2 -3 -1 -11 -7 -17z m-272 -98 c11 -7 5 -10 -22 -10 -21 0 -38
5 -38 10 0 13 40 13 60 0z"/>
<path d="M910 1875 l0 -165 25 0 25 0 0 165 0 165 -25 0 -25 0 0 -165z"/>
<path d="M1990 1930 c0 -13 -7 -20 -20 -20 -24 0 -43 -34 -35 -60 5 -15 15
-20 41 -20 l34 0 0 60 c0 33 -4 60 -10 60 -5 0 -10 -9 -10 -20z m-2 -63 c2
-19 -1 -27 -13 -27 -19 0 -30 24 -21 46 9 23 31 11 34 -19z"/>
<path d="M1107 1933 c-4 -3 -6 -29 -6 -57 1 -28 4 -41 6 -28 5 27 24 29 41 2
7 -11 17 -20 23 -20 8 0 8 4 1 13 -7 7 -9 29 -6 49 5 31 3 36 -17 41 -30 8
-34 8 -42 0z m53 -34 c0 -15 -30 -23 -42 -11 -6 6 -8 18 -4 27 4 13 10 14 26
5 11 -6 20 -15 20 -21z"/>
<path d="M1657 1933 c-4 -3 -6 -29 -6 -57 1 -28 4 -41 6 -28 5 27 29 29 38 2
3 -11 13 -20 22 -20 12 0 13 3 4 14 -6 7 -8 26 -5 44 5 24 2 32 -14 41 -24 13
-36 14 -45 4z m53 -32 c0 -9 -24 -21 -41 -21 -10 0 -12 33 -3 43 8 8 44 -11
44 -22z"/>
<path d="M1300 1880 c0 -48 1 -50 28 -49 16 1 20 3 10 6 -24 6 -34 44 -15 58
14 10 13 12 -4 23 -18 11 -19 9 -19 -38z"/>
<path d="M1211 1896 c-7 -8 -11 -25 -9 -38 2 -19 10 -23 38 -24 26 -1 28 -1 8
3 -36 6 -37 33 -2 33 19 0 25 5 22 18 -4 22 -41 27 -57 8z m49 -12 c0 -2 -9
-4 -21 -4 -11 0 -18 4 -14 10 5 8 35 3 35 -6z"/>
<path d="M1370 1871 c0 -23 5 -41 10 -41 6 0 10 15 10 34 0 19 -4 38 -10 41
-6 4 -10 -10 -10 -34z"/>
<path d="M1421 1868 c1 -25 3 -33 6 -18 8 47 12 53 28 40 7 -6 16 -24 18 -38
3 -15 4 -10 3 13 -1 36 -4 40 -28 43 -27 3 -28 2 -27 -40z"/>
<path d="M1533 1904 c23 -7 22 -21 -3 -29 -11 -3 -20 -15 -20 -26 0 -15 7 -19
31 -19 29 0 30 2 27 38 -3 31 -7 37 -28 39 -14 1 -18 0 -7 -3z m27 -55 c0 -5
-7 -9 -15 -9 -15 0 -20 12 -9 23 8 8 24 -1 24 -14z"/>
<path d="M1761 1896 c-7 -8 -11 -25 -9 -38 2 -19 10 -23 38 -24 26 -1 28 -1 8
3 -36 6 -37 33 -2 33 19 0 25 5 22 18 -4 22 -41 27 -57 8z m34 -6 c3 -5 -1
-10 -10 -10 -9 0 -13 5 -10 10 3 6 8 10 10 10 2 0 7 -4 10 -10z"/>
<path d="M1850 1900 c0 -5 6 -7 14 -4 8 3 17 1 20 -4 3 -6 -5 -13 -19 -16 -16
-4 -25 -13 -25 -26 0 -16 7 -20 35 -20 32 0 35 3 35 28 0 15 -5 33 -12 40 -14
14 -48 16 -48 2z m40 -51 c0 -5 -7 -9 -15 -9 -15 0 -20 12 -9 23 8 8 24 -1 24
-14z"/>
<path d="M2030 1905 c0 -3 7 -22 15 -43 15 -34 15 -38 -2 -50 -17 -13 -17 -14
2 -10 28 5 73 108 47 108 -5 0 -13 -15 -17 -32 l-7 -33 -11 33 c-5 17 -14 32
-18 32 -5 0 -9 -2 -9 -5z"/>
<path d="M5427 1878 c-10 -5 -24 -7 -31 -5 -8 3 -18 1 -22 -3 -5 -5 -18 -11
-29 -13 -35 -7 -90 -35 -108 -54 -14 -16 -15 -22 -4 -37 13 -17 17 -17 76 13
34 17 70 30 79 29 39 -3 53 3 62 28 13 34 1 56 -23 42z"/>
<path d="M5108 1665 c2 -12 14 -35 28 -51 22 -28 23 -28 24 -6 0 14 7 22 18
23 45 4 69 8 97 17 29 10 29 10 -17 13 -71 3 -73 3 -79 12 -3 5 -22 10 -41 11
-31 3 -34 1 -30 -19z"/>
<path d="M1107 1593 c-4 -3 -6 -29 -6 -57 1 -28 4 -41 6 -28 5 27 24 29 41 2
7 -11 17 -20 23 -20 8 0 8 4 1 13 -7 7 -9 29 -6 49 5 31 3 36 -17 41 -30 8
-34 8 -42 0z m53 -34 c0 -15 -30 -23 -42 -11 -6 6 -8 18 -4 27 4 13 10 14 26
5 11 -6 20 -15 20 -21z"/>
<path d="M2027 1594 c-4 -4 -7 -29 -7 -56 0 -48 0 -48 33 -48 18 0 38 5 45 12
16 16 15 63 -1 76 -17 15 -61 25 -70 16z m42 -14 c39 -20 32 -80 -9 -80 -17 0
-20 7 -20 45 0 48 2 50 29 35z"/>
<path d="M5082 1568 c-6 -7 -13 -27 -17 -43 -6 -28 -5 -28 15 8 21 39 23 59 2
35z"/>
<path d="M5170 1570 c0 -5 5 -10 10 -10 6 0 10 5 10 10 0 6 -4 10 -10 10 -5 0
-10 -4 -10 -10z"/>
<path d="M1211 1556 c-7 -8 -11 -25 -9 -38 2 -19 10 -23 38 -24 26 -1 28 -1 8
3 -36 6 -37 33 -2 33 19 0 25 5 22 18 -4 22 -41 27 -57 8z m49 -12 c0 -2 -9
-4 -21 -4 -11 0 -18 4 -14 10 5 8 35 3 35 -6z"/>
<path d="M1296 1555 c-3 -9 3 -20 14 -27 26 -17 25 -26 -2 -31 -17 -3 -14 -5
10 -6 26 -1 32 3 32 19 0 11 -6 20 -14 20 -26 0 -28 20 -4 29 23 10 23 10 -3
10 -15 1 -29 -6 -33 -14z"/>
<path d="M1380 1513 c0 -47 2 -54 13 -41 6 9 21 18 32 20 23 4 32 42 15 64 -7
7 -23 14 -36 14 -22 0 -24 -4 -24 -57z m60 19 c-1 -18 -20 -34 -34 -29 -16 6
-22 38 -10 50 8 7 44 -10 44 -21z"/>
<path d="M1480 1550 c-6 -12 -8 -30 -5 -41 10 -30 69 -23 73 9 7 47 -47 72
-68 32z m49 -4 c14 -17 4 -46 -15 -46 -18 0 -28 24 -20 45 7 19 20 19 35 1z"/>
<path d="M1581 1528 c1 -25 3 -33 6 -18 8 47 12 53 28 40 7 -6 16 -24 18 -38
3 -15 4 -10 3 13 -1 36 -4 40 -28 43 -27 3 -28 2 -27 -40z"/>
<path d="M1673 1554 c-4 -11 2 -23 17 -34 l24 -18 -25 -5 c-23 -4 -23 -4 3 -6
36 -1 47 19 20 37 -25 16 -30 37 -7 28 8 -3 15 -1 15 4 0 17 -40 11 -47 -6z"/>
<path d="M1750 1530 c0 -22 5 -40 10 -40 6 0 10 18 10 40 0 22 -4 40 -10 40
-5 0 -10 -18 -10 -40z"/>
<path d="M1790 1565 c0 -17 31 -75 39 -75 6 0 18 16 26 36 18 43 18 44 6 44
-5 0 -15 -15 -21 -32 l-13 -33 -10 33 c-5 17 -14 32 -18 32 -5 0 -9 -2 -9 -5z"/>
<path d="M1892 1561 c-8 -4 -12 -21 -10 -37 3 -26 7 -29 38 -30 26 -1 28 -1 8
3 -36 6 -37 33 -2 33 19 0 25 5 22 18 -4 19 -36 27 -56 13z m33 -11 c3 -5 -1
-10 -10 -10 -9 0 -13 5 -10 10 3 6 8 10 10 10 2 0 7 -4 10 -10z"/>
<path d="M2144 1556 c-3 -8 -4 -25 -2 -38 2 -18 10 -23 33 -25 25 -2 26 -1 7
5 -31 9 -29 26 3 30 18 2 25 9 23 20 -4 22 -56 29 -64 8z m41 -6 c3 -5 -1 -10
-10 -10 -9 0 -13 5 -10 10 3 6 8 10 10 10 2 0 7 -4 10 -10z"/>
<path d="M2237 1563 c-13 -13 -7 -32 13 -38 27 -8 25 -23 -2 -28 -17 -3 -14
-5 10 -6 37 -1 44 22 12 39 -23 12 -27 35 -5 26 8 -3 15 -1 15 4 0 11 -33 14
-43 3z"/>
<path d="M2317 1563 c-11 -10 -8 -73 3 -73 6 0 10 18 10 40 0 41 -2 45 -13 33z"/>
<path d="M2372 1561 c-23 -14 -11 -64 18 -72 25 -6 23 -8 -20 -22 -8 -3 0 -6
17 -6 36 -1 48 20 41 75 -3 30 -30 42 -56 25z m36 -37 c-4 -23 -26 -30 -34
-10 -8 20 15 51 29 37 5 -5 7 -17 5 -27z"/>
<path d="M2461 1528 c1 -25 3 -33 6 -18 8 47 12 53 28 40 7 -6 16 -24 18 -38
3 -15 4 -10 3 13 -1 36 -4 40 -28 43 -27 3 -28 2 -27 -40z"/>
<path d="M5005 1437 c-10 -8 -15 -19 -11 -25 4 -7 0 -22 -8 -34 -20 -28 -21
-72 -2 -87 11 -10 24 -9 58 0 69 20 77 31 51 82 -12 23 -24 50 -27 60 -6 20
-35 22 -61 4z"/>
<path d="M5515 1089 c-23 -13 -45 -39 -45 -51 0 -5 11 3 24 18 43 51 136 26
149 -40 4 -21 4 -21 6 1 3 53 -85 100 -134 72z"/>
<path d="M5405 1030 c-16 -7 -17 -9 -3 -9 9 -1 20 4 23 9 7 11 7 11 -20 0z"/>
<path d="M5378 996 c-10 -7 -18 -17 -18 -22 0 -4 5 -3 12 4 7 7 23 12 36 12
13 0 20 4 17 10 -8 14 -26 12 -47 -4z"/>
<path d="M5690 975 c-13 -14 -20 -28 -17 -32 4 -3 7 -1 7 5 0 19 53 41 85 35
39 -7 63 -29 74 -67 l9 -31 1 28 c1 19 -9 38 -28 58 -39 39 -97 41 -131 4z"/>
<path d="M5560 960 c0 -7 -7 -10 -16 -6 -11 4 -14 1 -12 -12 5 -25 53 -23 53
2 0 11 -6 21 -12 24 -7 2 -13 -2 -13 -8z"/>
<path d="M5472 914 c15 -15 30 -26 33 -23 2 3 -10 16 -28 29 l-32 23 27 -29z"/>
<path d="M5573 893 c-47 -6 -41 -29 11 -42 28 -7 49 -20 61 -37 20 -31 96 -67
122 -58 10 4 25 13 34 21 14 12 19 12 33 -2 9 -9 16 -30 16 -46 0 -38 15 -37
34 3 17 33 13 98 -6 98 -6 0 -8 7 -4 15 8 23 -4 18 -25 -9 -55 -70 -196 -48
-214 34 -4 17 -12 29 -18 28 -7 0 -27 -3 -44 -5z"/>
<path d="M5683 884 c-8 -20 21 -49 41 -41 20 8 20 21 0 41 -20 20 -33 20 -41
0z"/>
<path d="M5350 850 c0 -11 5 -20 10 -20 6 0 10 9 10 20 0 11 -4 20 -10 20 -5
0 -10 -9 -10 -20z"/>
<path d="M5353 779 c-23 -9 -32 -39 -12 -39 8 0 8 -4 0 -14 -8 -10 -8 -16 2
-24 11 -9 17 -4 29 21 20 42 11 68 -19 56z"/>
<path d="M5490 695 c-7 -8 -10 -24 -8 -37 2 -17 11 -24 32 -26 39 -5 53 11 37
42 -16 29 -46 39 -61 21z"/>
<path d="M5803 658 c-16 -24 -36 -54 -43 -68 -13 -25 -13 -25 7 -7 19 16 79
117 70 117 -2 0 -17 -19 -34 -42z"/>
<path d="M5375 640 c-3 -11 -4 -24 -1 -29 4 -5 0 -12 -6 -14 -8 -3 -6 -6 5 -6
9 -1 17 -6 17 -12 0 -6 -9 -8 -20 -4 -14 5 -20 2 -20 -10 0 -9 4 -13 10 -10 6
4 7 -1 4 -12 -5 -16 -4 -16 10 1 9 11 16 16 17 10 0 -5 4 -1 7 8 7 17 8 16 20
-2 11 -18 10 -20 -11 -20 -13 0 -28 -5 -34 -11 -8 -8 -13 -8 -17 0 -9 14 -46
-4 -46 -23 0 -8 -7 -17 -16 -20 -8 -3 -12 -10 -9 -16 3 -5 0 -11 -7 -11 -18
-2 -21 -1 -42 7 -17 6 -18 4 -12 -19 7 -30 5 -31 -41 -18 -22 6 -43 6 -63 -2
-27 -10 -31 -16 -26 -39 3 -15 16 -45 30 -65 13 -21 27 -49 31 -62 7 -23 5
-24 -25 -18 -35 8 -70 -6 -70 -28 0 -24 108 -125 134 -125 3 0 19 29 36 65 17
36 35 65 40 65 6 0 10 -36 10 -84 0 -68 4 -88 19 -107 27 -33 55 -16 59 35 2
23 13 46 30 63 22 22 34 26 73 24 32 -2 60 4 87 18 45 23 102 86 102 114 0 19
45 103 61 113 5 3 14 -7 21 -23 9 -23 12 -25 15 -10 17 72 -53 59 -108 -21
-17 -23 -49 -22 -49 2 0 7 35 48 79 92 79 80 107 124 77 124 -8 0 -23 -9 -33
-19 -38 -41 -120 -53 -171 -27 -33 17 -73 59 -100 105 -24 40 -58 51 -67 21z"/>
<path d="M5741 300 c-13 -11 -29 -20 -36 -20 -19 0 -26 -27 -9 -40 8 -7 14
-22 14 -34 0 -46 44 -61 76 -25 27 30 29 115 4 129 -23 12 -21 13 -49 -10z"/>
</g>
</svg>
